# xmcd
#
# Track frame offsets: 
#        187
#        81782
#        86695
#        91120
#        94480
#        98825
#        104167
#        107307
#        119082
#        125445
#        137825
#        152670
#        161745
#        171740
#        224487
#        262992
#        289115
#        311455
#
# Disc length: 4507 seconds
#
# Revision: 5
# Processed by: cddbd v1.5.2PL0 Copyright (c) Steve Scherf et al.
# Submitted via: ExactAudioCopy v0.99pb5
#
DISCID=04119912
DTITLE=The Rembrandt Trio - Piano Trios of Tchaikovsky and Arensky
DYEAR=1991
DGENRE=Classical
TTITLE0=Tchaikovsky Piano Trio in A minor, Op.50¡EPezzo elegiaco¡GMode
TTITLE0=rato assai - Allegro giusto
TTITLE1=Tchaikovsky Piano Trio in A minor, Op.50¡ETema con Variazioni¡
TTITLE1=GTema¡GAndante con moto
TTITLE2=Tchaikovsky Piano Trio in A minor, Op.50¡ETema con Variazioni¡
TTITLE2=GVar I. - L'istesso tempo
TTITLE3=Tchaikovsky Piano Trio in A minor, Op.50¡ETema con Variazioni¡
TTITLE3=GVar II. - Piu mosso
TTITLE4=Tchaikovsky Piano Trio in A minor, Op.50¡ETema con Variazioni¡
TTITLE4=GVar III. - Allegro moderato
TTITLE5=Tchaikovsky Piano Trio in A minor, Op.50¡ETema con Variazioni¡
TTITLE5=GVar IV. - L'istessp tempo
TTITLE6=Tchaikovsky Piano Trio in A minor, Op.50¡ETema con Variazioni¡
TTITLE6=GVar V. - L'istesso tempo
TTITLE7=Tchaikovsky Piano Trio in A minor, Op.50¡ETema con Variazioni¡
TTITLE7=GVar VI. - Tempo di Valse
TTITLE8=Tchaikovsky Piano Trio in A minor, Op.50¡ETema con Variazioni¡
TTITLE8=GVar VII. - Allegro moderato
TTITLE9=Tchaikovsky Piano Trio in A minor, Op.50¡ETema con Variazioni¡
TTITLE9=GVar VIII. - Fuga - Allegro moderato
TTITLE10=Tchaikovsky Piano Trio in A minor, Op.50¡ETema con Variazioni
TTITLE10=¡GVar IX. - Andante flebile, ma non tanto
TTITLE11=Tchaikovsky Piano Trio in A minor, Op.50¡ETema con Variazioni
TTITLE11=¡GVar X. - Tempo di Mazurka
TTITLE12=Tchaikovsky Piano Trio in A minor, Op.50¡ETema con Variazioni
TTITLE12=¡GVar XI. - Moderato
TTITLE13=Tchaikovsky Piano Trio in A minor, Op.50¡EVariazione Finale e
TTITLE13=Coda¡GAllegro risoluto e con fuoco - Andante con moto - Lugu
TTITLE13=bre
TTITLE14=Anton Stepanovich Arensky Piano Trio No.1 in D minor, Op.32 -
TTITLE14=I. Allegro moderato
TTITLE15=Anton Stepanovich Arensky Piano Trio No.1 in D minor, Op.32 -
TTITLE15=II. Scherzo¡GAllegro molto
TTITLE16=Anton Stepanovich Arensky Piano Trio No.1 in D minor, Op.32 -
TTITLE16=III. Elegia¡GAdagio
TTITLE17=Anton Stepanovich Arensky Piano Trio No.1 in D minor, Op.32 -
TTITLE17=IV. Finale¡GAllegro non troppo
EXTD=Valerie Tryon - piano\nGerard Kantarjian - violin\nCoenraad Bloem
EXTD=endal - Cello
EXTT0=
EXTT1=
EXTT2=
EXTT3=
EXTT4=
EXTT5=
EXTT6=
EXTT7=
EXTT8=
EXTT9=
EXTT10=
EXTT11=
EXTT12=
EXTT13=
EXTT14=
EXTT15=
EXTT16=
EXTT17=
PLAYORDER=
